<svg xmlns="http://www.w3.org/2000/svg" width="26" height="26" viewBox="0 0 26 26">
  <metadata><?xpacket begin="﻿" id="W5M0MpCehiHzreSzNTczkc9d"?>
<x:xmpmeta xmlns:x="adobe:ns:meta/" x:xmptk="Adobe XMP Core 5.6-c142 79.160924, 2017/07/13-01:06:39        ">
   <rdf:RDF xmlns:rdf="http://www.w3.org/1999/02/22-rdf-syntax-ns#">
      <rdf:Description rdf:about=""/>
   </rdf:RDF>
</x:xmpmeta>                                       
<?xpacket end="w"?></metadata>
<defs>
    <style>
      .cls-1 {
        fill: #dfb303;
        fill-rule: evenodd;
      }
    </style>
  </defs>
  <path id="галока" class="cls-1" d="M986,857.535v18.93A3.539,3.539,0,0,0,989.535,880h18.925a3.543,3.543,0,0,0,3.54-3.535v-4.9a1.14,1.14,0,0,0-2.28,0v4.9a1.255,1.255,0,0,1-1.26,1.254H989.535a1.255,1.255,0,0,1-1.254-1.254v-18.93a1.255,1.255,0,0,1,1.254-1.254h18.925a1.255,1.255,0,0,1,1.26,1.254v4.9a1.14,1.14,0,1,0,2.28,0v-4.9a3.543,3.543,0,0,0-3.54-3.535H989.535A3.539,3.539,0,0,0,986,857.535ZM1009.72,867a1.134,1.134,0,0,0,1.14,1.14,1.172,1.172,0,0,0,.81-0.334,1.149,1.149,0,0,0,0-1.612,1.173,1.173,0,0,0-.81-0.335A1.135,1.135,0,0,0,1009.72,867Zm-6.53-3.714-5.221,5.188-2.193-2.178a1.052,1.052,0,0,0-1.482,0,1.036,1.036,0,0,0,0,1.472l2.934,2.914a1.053,1.053,0,0,0,1.482,0l5.96-5.923a1.036,1.036,0,0,0,0-1.473A1.051,1.051,0,0,0,1003.19,863.286Z" transform="translate(-986 -854)"/>
</svg>
