<svg xmlns="http://www.w3.org/2000/svg" width="26" height="26" viewBox="0 0 26 26">
  <metadata><?xpacket begin="﻿" id="W5M0MpCehiHzreSzNTczkc9d"?>
<x:xmpmeta xmlns:x="adobe:ns:meta/" x:xmptk="Adobe XMP Core 5.6-c142 79.160924, 2017/07/13-01:06:39        ">
   <rdf:RDF xmlns:rdf="http://www.w3.org/1999/02/22-rdf-syntax-ns#">
      <rdf:Description rdf:about=""/>
   </rdf:RDF>
</x:xmpmeta>
                                                                                                    
                                                                                                    
                                                                                                    
                                                                                                    
                                                                                                    
                                                                                                    
                                                                                                    
                                                                                                    
                                                                                                    
                                                                                                    
                                                                                                    
                                                                                                    
                                                                                                    
                                                                                                    
                                                                                                    
                                                                                                    
                                                                                                    
                                                                                                    
                                                                                                    
                                                                                                    
                           
<?xpacket end="w"?></metadata>
<defs>
    <style>
      .cls-1 {
        fill: #e71e25;
        fill-rule: evenodd;
      }
    </style>
  </defs>
  <path id="отрицание" class="cls-1" d="M513.465,854h-18.93A3.539,3.539,0,0,0,491,857.535v18.93A3.539,3.539,0,0,0,494.535,880h4.9a1.141,1.141,0,0,0,0-2.281h-4.9a1.255,1.255,0,0,1-1.254-1.254v-18.93a1.255,1.255,0,0,1,1.254-1.254h18.93a1.255,1.255,0,0,1,1.254,1.254v18.93a1.256,1.256,0,0,1-1.254,1.254h-4.9a1.141,1.141,0,0,0,0,2.281h4.9A3.539,3.539,0,0,0,517,876.465v-18.93A3.539,3.539,0,0,0,513.465,854Zm-4.654,17.811a1.14,1.14,0,0,0,0-1.613l-3.2-3.2,3.2-3.2a1.14,1.14,0,1,0-1.613-1.612l-3.2,3.2-3.2-3.2a1.14,1.14,0,0,0-1.612,1.612l3.2,3.2-3.2,3.2a1.14,1.14,0,1,0,1.612,1.613l3.2-3.2,3.2,3.2A1.141,1.141,0,0,0,508.811,871.811ZM504,877.719a1.14,1.14,0,1,0,.806.334A1.148,1.148,0,0,0,504,877.719Z" transform="translate(-491 -854)"/>
</svg>
